<svg width="36" height="36" viewBox="0 0 36 36" fill="none" xmlns="http://www.w3.org/2000/svg">
<path d="M28.2028 7.71484C29.5565 7.71484 30.4227 9.1598 29.7878 10.3584L20.8054 27.3047C20.1115 28.6147 18.2381 28.6123 17.5466 27.3008L15.5817 23.5723L14.0163 26.5273C13.9148 26.7196 13.7627 26.8809 13.5769 26.9932C13.3908 27.1055 13.1769 27.165 12.9597 27.165C12.7426 27.165 12.5294 27.1054 12.3435 26.9932C12.1575 26.8809 12.0056 26.7197 11.904 26.5273L6.13741 15.5869C6.04153 15.4044 5.9947 15.1994 6.00069 14.9932C6.00675 14.7871 6.06534 14.5857 6.17159 14.4092C6.27792 14.2325 6.42891 14.0868 6.60812 13.9854C6.78724 13.884 6.98934 13.8301 7.19503 13.8301H10.445L8.65206 10.4268C8.00225 9.19569 8.89171 7.71514 10.281 7.71484H28.2028ZM11.739 13.8154C11.6021 13.8158 11.4674 13.8521 11.3483 13.9199C11.2293 13.9878 11.1298 14.0854 11.0593 14.2031C10.9889 14.3208 10.9497 14.4546 10.946 14.5918C10.9424 14.729 10.9737 14.865 11.0378 14.9863L14.8737 22.2646C14.9414 22.3925 15.043 22.4996 15.1667 22.5742C15.2905 22.6488 15.4325 22.6885 15.5769 22.6885C15.7213 22.6884 15.8633 22.6488 15.987 22.5742C16.1106 22.4996 16.2113 22.3924 16.279 22.2646L20.153 14.9551C20.2155 14.8371 20.2463 14.7048 20.2429 14.5713C20.2394 14.4375 20.2013 14.3062 20.1325 14.1914C20.0638 14.0767 19.9665 13.9819 19.8503 13.916C19.7341 13.8501 19.6029 13.8155 19.4694 13.8154H11.739Z" fill="#E6175C"/>
</svg>
